<?xml version="1.0" encoding="UTF-8" standalone="no"?>
<svg
   xmlns:dc="http://purl.org/dc/elements/1.1/"
   xmlns:cc="http://creativecommons.org/ns#"
   xmlns:rdf="http://www.w3.org/1999/02/22-rdf-syntax-ns#"
   xmlns:svg="http://www.w3.org/2000/svg"
   xmlns="http://www.w3.org/2000/svg"
   xmlns:sodipodi="http://sodipodi.sourceforge.net/DTD/sodipodi-0.dtd"
   xmlns:inkscape="http://www.inkscape.org/namespaces/inkscape"
   viewBox="0 0 1440 1080.0072605530122"
   preserveAspectRatio="xMaxYMax slice"
   version="1.1"
   id="svg92"
   sodipodi:docname="patternpad2.svg"
   inkscape:version="0.92.5 (2060ec1f9f, 2020-04-08)">
  <metadata
     id="metadata98">
    <rdf:RDF>
      <cc:Work
         rdf:about="">
        <dc:format>image/svg+xml</dc:format>
        <dc:type
           rdf:resource="http://purl.org/dc/dcmitype/StillImage" />
        <dc:title></dc:title>
      </cc:Work>
    </rdf:RDF>
  </metadata>
  <defs
     id="defs96" />
  <sodipodi:namedview
     pagecolor="#ffffff"
     bordercolor="#666666"
     borderopacity="1"
     objecttolerance="10"
     gridtolerance="10"
     guidetolerance="10"
     inkscape:pageopacity="0"
     inkscape:pageshadow="2"
     inkscape:window-width="1280"
     inkscape:window-height="937"
     id="namedview94"
     showgrid="false"
     inkscape:zoom="0.43703412"
     inkscape:cx="629.5114"
     inkscape:cy="613.34222"
     inkscape:window-x="0"
     inkscape:window-y="26"
     inkscape:window-maximized="1"
     inkscape:current-layer="g90" />
  <g
     transform="scale(1.8151382530302724)"
     id="g90">
    <rect
       x="0"
       y="0"
       width="793.3333333333334"
       height="595"
       id="rect2"
       fill="#ffffff" />
    <path
       d="m 140.90186,103.92779 a 66.11,66.11 0 0 1 66.11,-66.109996 l -66.11,66.109996 a 66.11,66.11 0 0 0 66.11,-66.109996"
       id="path6"
       inkscape:connector-curvature="0"
       style="fill:#ccf9dc" />
    <rect
       x="661.1111111111111"
       y="0"
       width="66.11111111111111"
       height="66.11111111111111"
       fill="#ffffff"
       id="rect8" />
    <path
       d="m 90.061301,286.43923 a 33.06,33.06 0 0 1 33.059999,-33.06 l -33.059999,33.06 a 33.06,33.06 0 0 0 33.059999,-33.06"
       id="path10"
       inkscape:connector-curvature="0"
       style="fill:#d7fae3" />
    <rect
       x="198.33333333333334"
       y="66.11111111111111"
       width="66.11111111111111"
       height="66.11111111111111"
       fill="#ffffff"
       id="rect12" />
    <path
       d="m 199.03366,115.83452 a 33.06,33.06 0 0 1 33.06,33.06 l -33.06,-33.06 a 33.06,33.06 0 0 0 33.06,33.06"
       id="path14"
       inkscape:connector-curvature="0"
       style="fill:#82ce9e" />
    <path
       d="m 731.84989,119.61407 a 66.11,66.11 0 0 1 66.11,-66.110002 l -66.11,66.110002 a 66.11,66.11 0 0 0 66.11,-66.110002"
       id="path18"
       inkscape:connector-curvature="0"
       style="fill:#6ee599" />
    <path
       d="M 264.44 132.22 A 66.11 66.11 0 0 1  330.55 198.32999999999998 L 264.44 132.22 A 66.11 66.11 0 0 0 330.55 198.32999999999998"
       fill="#fcfffd"
       id="path28" />
    <path
       d="m 635.45679,195.06852 a 66.11,66.11 0 0 1 66.11,66.11 l -66.11,-66.11 a 66.11,66.11 0 0 0 66.11,66.11"
       id="path34"
       inkscape:connector-curvature="0"
       style="fill:#61c184" />
    <path
       d="m 352.96611,65.967719 a 66.11,66.11 0 0 1 66.11,66.110001 l -66.11,-66.110001 a 66.11,66.11 0 0 0 66.11,66.110001"
       id="path36"
       inkscape:connector-curvature="0"
       style="fill:#f6fef9" />
    <path
       d="M 0 330.55 A 66.11 66.11 0 0 1  66.11 264.44 L 0 330.55 A 66.11 66.11 0 0 0 66.11 264.44"
       fill="#f0fcf5"
       id="path38" />
    <path
       d="m 485.18612,332.51203 a 66.11,66.11 0 0 1 66.11,66.11 l -66.11,-66.11 a 66.11,66.11 0 0 0 66.11,66.11"
       id="path56"
       inkscape:connector-curvature="0"
       style="fill:#c2f4d4" />
    <rect
       x="198.33333333333334"
       y="330.55555555555554"
       width="66.11111111111111"
       height="66.11111111111111"
       fill="#ffffff"
       id="rect58" />
    <rect
       x="462.7777777777778"
       y="396.6666666666667"
       width="66.11111111111111"
       height="66.11111111111111"
       fill="#ffffff"
       id="rect64" />
    <path
       d="m 649.20551,427.48339 a 66.11,66.11 0 0 1 66.11,-66.11 l -66.11,66.11 a 66.11,66.11 0 0 0 66.11,-66.11"
       id="path66"
       inkscape:connector-curvature="0"
       style="fill:#b1f1c8" />
    <rect
       x="462.7777777777778"
       y="462.7777777777778"
       width="66.11111111111111"
       height="66.11111111111111"
       fill="#ffffff"
       id="rect70" />
    <path
       d="M 462.78 528.89 A 33.06 33.06 0 0 1  495.84 495.83 L 462.78 528.89 A 33.06 33.06 0 0 0 495.84 495.83"
       fill="#f6fef9"
       id="path72" />
    <path
       d="M 495.83 528.89 A 33.06 33.06 0 0 1  528.89 495.83 L 495.83 528.89 A 33.06 33.06 0 0 0 528.89 495.83"
       fill="#6ce498"
       id="path74" />
    <path
       d="m 715.87466,513.76288 a 66.11,66.11 0 0 1 66.11,-66.11 l -66.11,66.11 a 66.11,66.11 0 0 0 66.11,-66.11"
       id="path78"
       inkscape:connector-curvature="0"
       style="fill:#c9f9da" />
    <rect
       x="528.8888888888889"
       y="528.8888888888889"
       width="66.11111111111111"
       height="66.11111111111111"
       fill="#ffffff"
       id="rect84" />
    <path
       d="m 601.86212,502.41754 a 66.11,66.11 0 0 1 66.11,66.11 l -66.11,-66.11 a 66.11,66.11 0 0 0 66.11,66.11"
       id="path88"
       inkscape:connector-curvature="0"
       style="fill:#6ee599" />
    <path
       d="M 14.847537,587.71599 A 66.11,66.11 0 0 1 80.957531,521.606 L 14.847537,587.71599 A 66.11,66.11 0 0 0 80.957531,521.606"
       id="path18-3"
       inkscape:connector-curvature="0"
       style="fill:#6ee599;stroke-width:1" />
    <path
       inkscape:connector-curvature="0"
       style="fill:#c2f4d4;stroke-width:1"
       d="m 3.5022026,415.71616 a 66.11,66.11 0 0 1 66.1099994,66.11 l -66.1099994,-66.11 a 66.11,66.11 0 0 0 66.1099994,66.11"
       id="path56-6" />
    <path
       id="path950"
       d="m 264.44,264.44 a 66.11,66.11 0 0 1 66.11,-66.11 l -66.11,66.11 a 66.11,66.11 0 0 0 66.11,-66.11"
       inkscape:connector-curvature="0"
       style="fill:#f0fcf5" />
    <path
       style="fill:#f0fcf5"
       inkscape:connector-curvature="0"
       d="m 340.36016,421.31271 a 66.11,66.11 0 0 1 66.11,-66.11 l -66.11,66.11 a 66.11,66.11 0 0 0 66.11,-66.11"
       id="path952" />
    <path
       id="path954"
       d="m 487.84956,306.59873 a 66.11,66.11 0 0 1 66.11,-66.11 l -66.11,66.11 a 66.11,66.11 0 0 0 66.11,-66.11"
       inkscape:connector-curvature="0"
       style="fill:#f0fcf5" />
    <path
       style="fill:#f0fcf5"
       inkscape:connector-curvature="0"
       d="M 140.5816,170.35498 A 66.11,66.11 0 0 1 75.112122,103.6106 L 140.5816,170.35498 A 66.11,66.11 0 0 0 75.112122,103.6106"
       id="path956" />
    <path
       style="fill:#d7fae3"
       inkscape:connector-curvature="0"
       id="path958"
       d="m 383.77951,275.09389 a 33.06,33.06 0 0 1 33.05999,-33.06 l -33.05999,33.06 a 33.06,33.06 0 0 0 33.05999,-33.06" />
    <path
       style="fill:#c9f9da"
       inkscape:connector-curvature="0"
       id="path960"
       d="m 331.39375,472.16331 a 66.11,66.11 0 0 1 66.11,-66.11 l -66.11,66.11 a 66.11,66.11 0 0 0 66.11,-66.11" />
    <path
       d="m 554.51874,117.93663 a 66.11,66.11 0 0 1 66.11,-66.109996 l -66.11,66.109996 a 66.11,66.11 0 0 0 66.11,-66.109996"
       id="path962"
       inkscape:connector-curvature="0"
       style="fill:#c9f9da" />
    <path
       style="fill:#d7fae3"
       inkscape:connector-curvature="0"
       id="path964"
       d="m 184.60578,534.77608 a 33.06,33.06 0 0 1 33.06,-33.06 l -33.06,33.06 a 33.06,33.06 0 0 0 33.06,-33.06" />
    <path
       id="path966"
       d="m 346.38355,520.3454 a 66.11,66.11 0 0 1 66.10999,66.11 l -66.10999,-66.11 a 66.11,66.11 0 0 0 66.10999,66.11"
       style="fill:#c2f4d4;stroke-width:1"
       inkscape:connector-curvature="0" />
  </g>
</svg>
