<?xml version="1.0" standalone="no"?><svg xmlns:xlink="http://www.w3.org/1999/xlink" xmlns="http://www.w3.org/2000/svg" viewBox="0 0 1440 1080.0072605530122" preserveAspectRatio="xMaxYMax slice"><g transform="scale(1.8151382530302724)"><rect x="0" y="0" width="793.3333333333334" height="595" fill="#ffffff"/><path d="M 66.11 0 A 66.11 66.11 0 0 1  132.22 66.11 L 66.11 0 A 66.11 66.11 0 0 0 132.22 66.11" fill="#46b66f"/><path d="M 264.44 66.11 A 66.11 66.11 0 0 1  330.55 0 L 264.44 66.11 A 66.11 66.11 0 0 0 330.55 0" fill="#ccf9dc"/><rect x="661.1111111111111" y="0" width="66.11111111111111" height="66.11111111111111" fill="#ffffff"/><path d="M 661.11 33.06 A 33.06 33.06 0 0 1  694.1700000000001 0 L 661.11 33.06 A 33.06 33.06 0 0 0 694.1700000000001 0" fill="#d7fae3"/><rect x="198.33333333333334" y="66.11111111111111" width="66.11111111111111" height="66.11111111111111" fill="#ffffff"/><path d="M 231.39 66.11 A 33.06 33.06 0 0 1  264.45 99.17 L 231.39 66.11 A 33.06 33.06 0 0 0 264.45 99.17" fill="#82ce9e"/><path d="M 198.33 132.23000000000002 A 33.06 33.06 0 0 1  231.39000000000001 99.17 L 198.33 132.23000000000002 A 33.06 33.06 0 0 0 231.39000000000001 99.17" fill="#a6dcba"/><path d="M 595 132.22 A 66.11 66.11 0 0 1  661.11 66.11 L 595 132.22 A 66.11 66.11 0 0 0 661.11 66.11" fill="#6ee599"/><rect x="132.22222222222223" y="132.22222222222223" width="66.11111111111111" height="66.11111111111111" fill="#ffffff"/><path d="M 132.22 165.28 A 33.06 33.06 0 0 1  165.28 132.22 L 132.22 165.28 A 33.06 33.06 0 0 0 165.28 132.22" fill="#83e8a8"/><path d="M 165.28 132.22 A 33.06 33.06 0 0 1  198.34 165.28 L 165.28 132.22 A 33.06 33.06 0 0 0 198.34 165.28" fill="#d0f9df"/><path d="M 132.22 165.28 A 33.06 33.06 0 0 1  165.28 198.34 L 132.22 165.28 A 33.06 33.06 0 0 0 165.28 198.34" fill="#f0fcf4"/><path d="M 264.44 132.22 A 66.11 66.11 0 0 1  330.55 198.32999999999998 L 264.44 132.22 A 66.11 66.11 0 0 0 330.55 198.32999999999998" fill="#fcfffd"/><rect x="396.6666666666667" y="132.22222222222223" width="66.11111111111111" height="66.11111111111111" fill="#ffffff"/><rect x="66.11111111111111" y="198.33333333333334" width="66.11111111111111" height="66.11111111111111" fill="#ffffff"/><path d="M 528.89 198.33 A 66.11 66.11 0 0 1  595 264.44 L 528.89 198.33 A 66.11 66.11 0 0 0 595 264.44" fill="#61c184"/><path d="M 595 198.33 A 66.11 66.11 0 0 1  661.11 264.44 L 595 198.33 A 66.11 66.11 0 0 0 661.11 264.44" fill="#f6fef9"/><path d="M 0 330.55 A 66.11 66.11 0 0 1  66.11 264.44 L 0 330.55 A 66.11 66.11 0 0 0 66.11 264.44" fill="#f0fcf5"/><rect x="132.22222222222223" y="264.44444444444446" width="66.11111111111111" height="66.11111111111111" fill="#ffffff"/><path d="M 132.22 297.5 A 33.06 33.06 0 0 1  165.28 264.44 L 132.22 297.5 A 33.06 33.06 0 0 0 165.28 264.44" fill="#adf0c5"/><path d="M 165.28 264.44 A 33.06 33.06 0 0 1  198.34 297.5 L 165.28 264.44 A 33.06 33.06 0 0 0 198.34 297.5" fill="#d3fae0"/><rect x="198.33333333333334" y="264.44444444444446" width="66.11111111111111" height="66.11111111111111" fill="#ffffff"/><path d="M 198.33 297.5 A 33.06 33.06 0 0 1  231.39000000000001 264.44 L 198.33 297.5 A 33.06 33.06 0 0 0 231.39000000000001 264.44" fill="#64e393"/><path d="M 231.39 264.44 A 33.06 33.06 0 0 1  264.45 297.5 L 231.39 264.44 A 33.06 33.06 0 0 0 264.45 297.5" fill="#caf9da"/><path d="M 396.67 264.44 A 66.11 66.11 0 0 1  462.78000000000003 330.55 L 396.67 264.44 A 66.11 66.11 0 0 0 462.78000000000003 330.55" fill="#b3f1ca"/><path d="M 528.89 330.55 A 66.11 66.11 0 0 1  595 264.44 L 528.89 330.55 A 66.11 66.11 0 0 0 595 264.44" fill="#bde5cb"/><path d="M 727.22 264.44 A 66.11 66.11 0 0 1  793.33 330.55 L 727.22 264.44 A 66.11 66.11 0 0 0 793.33 330.55" fill="#c2f4d4"/><rect x="198.33333333333334" y="330.55555555555554" width="66.11111111111111" height="66.11111111111111" fill="#ffffff"/><rect x="330.55555555555554" y="330.55555555555554" width="66.11111111111111" height="66.11111111111111" fill="#ffffff"/><path d="M 330.56 363.61 A 33.06 33.06 0 0 1  363.62 396.67 L 330.56 363.61 A 33.06 33.06 0 0 0 363.62 396.67" fill="#b7e3c7"/><rect x="462.7777777777778" y="396.6666666666667" width="66.11111111111111" height="66.11111111111111" fill="#ffffff"/><path d="M 595 462.78000000000003 A 66.11 66.11 0 0 1  661.11 396.67 L 595 462.78000000000003 A 66.11 66.11 0 0 0 661.11 396.67" fill="#b1f1c8"/><path d="M 264.44 462.78 A 66.11 66.11 0 0 1  330.55 528.89 L 264.44 462.78 A 66.11 66.11 0 0 0 330.55 528.89" fill="#f1fcf5"/><rect x="462.7777777777778" y="462.7777777777778" width="66.11111111111111" height="66.11111111111111" fill="#ffffff"/><path d="M 462.78 528.89 A 33.06 33.06 0 0 1  495.84 495.83 L 462.78 528.89 A 33.06 33.06 0 0 0 495.84 495.83" fill="#f6fef9"/><path d="M 495.83 528.89 A 33.06 33.06 0 0 1  528.89 495.83 L 495.83 528.89 A 33.06 33.06 0 0 0 528.89 495.83" fill="#6ce498"/><path d="M 661.11 462.78 A 66.11 66.11 0 0 1  727.22 528.89 L 661.11 462.78 A 66.11 66.11 0 0 0 727.22 528.89" fill="#e6fcee"/><path d="M 727.22 528.89 A 66.11 66.11 0 0 1  793.33 462.78 L 727.22 528.89 A 66.11 66.11 0 0 0 793.33 462.78" fill="#c9f9da"/><path d="M 198.33 595 A 66.11 66.11 0 0 1  264.44 528.89 L 198.33 595 A 66.11 66.11 0 0 0 264.44 528.89" fill="#9ad7b1"/><path d="M 462.78 595 A 66.11 66.11 0 0 1  528.89 528.89 L 462.78 595 A 66.11 66.11 0 0 0 528.89 528.89" fill="#c3f4d5"/><rect x="528.8888888888889" y="528.8888888888889" width="66.11111111111111" height="66.11111111111111" fill="#ffffff"/><path d="M 561.94 528.89 A 33.06 33.06 0 0 1  595 561.95 L 561.94 528.89 A 33.06 33.06 0 0 0 595 561.95" fill="#6be497"/><path d="M 661.11 528.89 A 66.11 66.11 0 0 1  727.22 595 L 661.11 528.89 A 66.11 66.11 0 0 0 727.22 595" fill="#6ee599"/></g></svg>